<?xml version="1.0" encoding="utf-8"?>
<!-- Generator: Adobe Illustrator 23.1.0, SVG Export Plug-In . SVG Version: 6.00 Build 0)  -->
<svg version="1.1"
	 id="svg921" xmlns:cc="http://creativecommons.org/ns#" xmlns:dc="http://purl.org/dc/elements/1.1/" xmlns:inkscape="http://www.inkscape.org/namespaces/inkscape" xmlns:rdf="http://www.w3.org/1999/02/22-rdf-syntax-ns#" xmlns:sodipodi="http://sodipodi.sourceforge.net/DTD/sodipodi-0.dtd" xmlns:svg="http://www.w3.org/2000/svg"
	 xmlns="http://www.w3.org/2000/svg" xmlns:xlink="http://www.w3.org/1999/xlink" x="0px" y="0px" viewBox="0 0 585.1 213.1"
	 style="enable-background:new 0 0 585.1 213.1;" xml:space="preserve">
<style type="text/css">
	.st0{fill:#FFFFFF;stroke:#B3B3B3;stroke-width:1.862;stroke-linecap:round;stroke-linejoin:round;stroke-miterlimit:11.3386;}
	.st1{fill:#008000;}
	.st2{fill:#AA22FF;}
	.st3{fill:#008800;}
	.st4{fill:#BA2121;}
	.st5{font-family:'ArialMT';}
	.st6{font-size:24px;}
	.st7{fill:none;stroke:#B3B3B3;stroke-width:1.4995;stroke-linecap:round;stroke-linejoin:round;stroke-miterlimit:11.3386;}
	.st8{fill:#FFFFFF;stroke:#B3B3B3;stroke-width:1.4995;stroke-linecap:round;stroke-linejoin:round;stroke-miterlimit:11.3386;}
</style>
<sodipodi:namedview  bordercolor="#666666" borderopacity="1.0" fit-margin-bottom="10" fit-margin-left="10" fit-margin-right="10" fit-margin-top="10" id="base" inkscape:current-layer="layer1" inkscape:cx="91.232466" inkscape:cy="165.23409" inkscape:document-units="mm" inkscape:pageopacity="0.0" inkscape:pageshadow="2" inkscape:window-height="1029" inkscape:window-maximized="1" inkscape:window-width="1853" inkscape:window-x="67" inkscape:window-y="27" inkscape:zoom="0.7" pagecolor="#ffffff" showgrid="false">
	</sodipodi:namedview>
<g id="layer1" transform="translate(35.0999,-59.53384)" inkscape:groupmode="layer" inkscape:label="Layer 1">
	<path id="rect843" class="st0" d="M94.5,154.5h426.2v88.9H94.5V154.5z"/>
	<g id="flowRoot815" transform="matrix(0.26458333,0,0,0.26458333,6.6194966,44.948383)">
		<path id="path834" class="st1" d="M397.2,478.9h10.2v62h-10.2V478.9z M397.2,454.7h10.2v12.9h-10.2V454.7z"/>
		<path id="path836" class="st1" d="M460,454.7v8.5h-9.7c-3.7,0-6.2,0.7-7.6,2.2c-1.4,1.5-2.1,4.1-2.1,8v5.5h16.8v7.9h-16.8v54.1
			h-10.2v-54.1h-9.7v-7.9h9.7v-4.3c0-6.9,1.6-11.9,4.8-15.1c3.2-3.2,8.3-4.8,15.3-4.8H460z"/>
		<path id="path838" d="M556.1,503.4v37.4h-10.2v-37.1c0-5.9-1.1-10.3-3.4-13.2c-2.3-2.9-5.7-4.4-10.3-4.4c-5.5,0-9.8,1.8-13,5.3
			c-3.2,3.5-4.8,8.3-4.8,14.3v35h-10.2v-86.1h10.2v33.8c2.4-3.7,5.3-6.5,8.6-8.4c3.3-1.8,7.1-2.8,11.5-2.8c7.1,0,12.5,2.2,16.2,6.6
			C554.3,488.4,556.1,494.9,556.1,503.4z"/>
		<path id="path840" d="M600.6,486c-5.5,0-9.8,2.1-13,6.4c-3.2,4.2-4.8,10.1-4.8,17.5c0,7.4,1.6,13.3,4.7,17.6
			c3.2,4.2,7.5,6.4,13,6.4c5.4,0,9.7-2.1,12.9-6.4s4.8-10.1,4.8-17.5c0-7.3-1.6-13.2-4.8-17.4C610.3,488.2,606,486,600.6,486z
			 M600.6,477.4c8.9,0,15.8,2.9,20.9,8.6c5.1,5.8,7.6,13.7,7.6,23.9c0,10.2-2.5,18.1-7.6,23.9c-5.1,5.8-12,8.6-20.9,8.6
			c-8.9,0-15.9-2.9-20.9-8.6c-5-5.8-7.5-13.8-7.5-23.9c0-10.2,2.5-18.2,7.5-23.9C584.7,480.2,591.7,477.4,600.6,477.4z"/>
		<path id="path842" d="M644.8,516.4v-37.5H655V516c0,5.9,1.1,10.3,3.4,13.2c2.3,2.9,5.7,4.4,10.3,4.4c5.5,0,9.8-1.8,13-5.3
			c3.2-3.5,4.8-8.3,4.8-14.3v-35.2h10.2v62h-10.2v-9.5c-2.5,3.8-5.4,6.6-8.6,8.4c-3.2,1.8-7,2.7-11.3,2.7c-7.1,0-12.5-2.2-16.2-6.6
			S644.8,524.9,644.8,516.4z"/>
		<path id="path844" d="M757.4,480.7v9.6c-2.9-1.5-5.9-2.6-9-3.3c-3.1-0.7-6.3-1.1-9.6-1.1c-5.1,0-8.9,0.8-11.4,2.3
			c-2.5,1.6-3.8,3.9-3.8,7c0,2.4,0.9,4.2,2.7,5.6c1.8,1.3,5.4,2.6,10.9,3.8l3.5,0.8c7.2,1.6,12.4,3.7,15.4,6.6
			c3.1,2.8,4.6,6.7,4.6,11.8c0,5.8-2.3,10.3-6.9,13.7c-4.5,3.4-10.8,5-18.8,5c-3.3,0-6.8-0.3-10.4-1c-3.6-0.6-7.4-1.6-11.3-2.9
			v-10.5c3.8,2,7.5,3.4,11.1,4.4c3.7,1,7.3,1.4,10.9,1.4c4.8,0,8.5-0.8,11.1-2.4c2.6-1.7,3.9-4,3.9-7c0-2.8-0.9-4.9-2.8-6.4
			c-1.8-1.5-5.9-2.9-12.2-4.3l-3.5-0.8c-6.3-1.3-10.9-3.4-13.7-6.1c-2.8-2.8-4.2-6.6-4.2-11.3c0-5.8,2.1-10.3,6.2-13.5
			c4.1-3.2,10-4.8,17.6-4.8c3.8,0,7.3,0.3,10.6,0.8C751.5,478.7,754.6,479.6,757.4,480.7L757.4,480.7z"/>
		<path id="path846" d="M830,507.3v5h-46.8c0.4,7,2.5,12.4,6.3,16.1c3.8,3.7,9.1,5.5,15.8,5.5c3.9,0,7.7-0.5,11.3-1.4
			c3.7-1,7.3-2.4,11-4.3v9.6c-3.7,1.6-7.4,2.7-11.2,3.5s-7.7,1.2-11.7,1.2c-9.9,0-17.7-2.9-23.5-8.6c-5.8-5.8-8.6-13.5-8.6-23.4
			c0-10.2,2.7-18.2,8.2-24.1c5.5-6,12.9-9,22.2-9c8.3,0,14.9,2.7,19.8,8.1C827.6,490.8,830,498.1,830,507.3z M819.8,504.3
			c-0.1-5.6-1.6-10-4.7-13.3c-3-3.3-7-5-12.1-5c-5.7,0-10.2,1.6-13.7,4.8c-3.4,3.2-5.4,7.7-5.9,13.6L819.8,504.3z"/>
		<path id="path848" d="M893.8,559.7v7.9h-58.9v-7.9H893.8z"/>
		<path id="path850" d="M955,503.4v37.4h-10.2v-37.1c0-5.9-1.1-10.3-3.4-13.2s-5.7-4.4-10.3-4.4c-5.5,0-9.8,1.8-13,5.3
			c-3.2,3.5-4.8,8.3-4.8,14.3v35H903v-62h10.2v9.6c2.4-3.7,5.3-6.5,8.6-8.4c3.3-1.8,7.1-2.8,11.5-2.8c7.1,0,12.5,2.2,16.2,6.6
			C953.1,488.4,955,494.9,955,503.4z"/>
		<path id="path852" d="M974.3,516.4v-37.5h10.2V516c0,5.9,1.1,10.3,3.4,13.2c2.3,2.9,5.7,4.4,10.3,4.4c5.5,0,9.8-1.8,13-5.3
			c3.2-3.5,4.8-8.3,4.8-14.3v-35.2h10.2v62h-10.2v-9.5c-2.5,3.8-5.4,6.6-8.6,8.4c-3.2,1.8-7,2.7-11.3,2.7c-7.1,0-12.5-2.2-16.2-6.6
			S974.3,524.9,974.3,516.4z"/>
		<path id="path854" d="M1095.6,490.8c2.5-4.6,5.6-8,9.1-10.1s7.7-3.3,12.5-3.3c6.5,0,11.4,2.3,14.9,6.8c3.5,4.5,5.3,10.9,5.3,19.3
			v37.4h-10.2v-37.1c0-5.9-1.1-10.4-3.2-13.2c-2.1-2.9-5.3-4.3-9.6-4.3c-5.3,0-9.4,1.8-12.5,5.3c-3.1,3.5-4.6,8.3-4.6,14.3v35h-10.2
			v-37.1c0-6-1.1-10.4-3.2-13.2c-2.1-2.9-5.4-4.3-9.7-4.3c-5.2,0-9.3,1.8-12.4,5.3c-3.1,3.5-4.6,8.3-4.6,14.3v35H1047v-62h10.2v9.6
			c2.3-3.8,5.1-6.6,8.4-8.4c3.2-1.8,7.1-2.7,11.6-2.7c4.5,0,8.3,1.1,11.5,3.4C1091.8,483.1,1094.1,486.4,1095.6,490.8L1095.6,490.8z
			"/>
		<path id="path856" d="M1202.4,509.9c0-7.5-1.6-13.4-4.7-17.6c-3.1-4.3-7.3-6.4-12.7-6.4c-5.4,0-9.6,2.1-12.7,6.4
			c-3.1,4.2-4.6,10.1-4.6,17.6s1.5,13.4,4.6,17.7c3.1,4.2,7.3,6.4,12.7,6.4c5.4,0,9.6-2.1,12.7-6.4
			C1200.8,523.3,1202.4,517.4,1202.4,509.9z M1167.7,488.3c2.1-3.7,4.8-6.4,8.1-8.2c3.3-1.8,7.2-2.7,11.7-2.7c7.5,0,13.6,3,18.3,9
			c4.7,6,7.1,13.8,7.1,23.6s-2.4,17.6-7.1,23.6c-4.7,6-10.8,9-18.3,9c-4.5,0-8.5-0.9-11.7-2.7c-3.2-1.8-5.9-4.6-8.1-8.2v9.3h-10.2
			v-86.1h10.2V488.3z"/>
		<path id="path858" d="M1282.9,507.3v5H1236c0.4,7,2.5,12.4,6.3,16.1c3.8,3.7,9.1,5.5,15.8,5.5c3.9,0,7.7-0.5,11.3-1.4
			c3.7-1,7.3-2.4,11-4.3v9.6c-3.7,1.6-7.4,2.7-11.2,3.5c-3.8,0.8-7.7,1.2-11.7,1.2c-9.9,0-17.7-2.9-23.5-8.6
			c-5.8-5.8-8.6-13.5-8.6-23.4c0-10.2,2.7-18.2,8.2-24.1c5.5-6,12.9-9,22.2-9c8.3,0,14.9,2.7,19.8,8.1
			C1280.4,490.8,1282.9,498.1,1282.9,507.3z M1272.7,504.3c-0.1-5.6-1.6-10-4.7-13.3c-3-3.3-7-5-12.1-5c-5.7,0-10.2,1.6-13.7,4.8
			c-3.4,3.2-5.4,7.7-5.9,13.6L1272.7,504.3z"/>
		<path id="path860" d="M1335.5,488.4c-1.1-0.7-2.4-1.1-3.8-1.4c-1.3-0.3-2.8-0.5-4.4-0.5c-5.8,0-10.2,1.9-13.3,5.6
			c-3.1,3.7-4.6,9.1-4.6,16.1v32.7h-10.2v-62h10.2v9.6c2.1-3.8,4.9-6.6,8.4-8.4c3.4-1.8,7.6-2.8,12.5-2.8c0.7,0,1.5,0.1,2.3,0.2
			c0.8,0.1,1.8,0.2,2.8,0.4L1335.5,488.4z"/>
		<path id="path862" class="st2" d="M1383.7,489.4h71v9.3h-71V489.4z M1383.7,512h71v9.4h-71V512z"/>
		<path id="path864" class="st3" d="M1573.6,541h18.3V478l-19.9,4v-10.2l19.8-4h11.2V541h18.3v9.4h-47.6V541z"/>
		<path id="path866" class="st3" d="M1653.5,541.8h39v9.4H1640v-9.4c4.2-4.4,10-10.3,17.3-17.7c7.3-7.4,12-12.2,13.8-14.3
			c3.6-4,6.1-7.4,7.5-10.2c1.4-2.8,2.2-5.6,2.2-8.2c0-4.4-1.6-8-4.7-10.7c-3.1-2.8-7.1-4.2-12-4.2c-3.5,0-7.2,0.6-11.1,1.8
			c-3.9,1.2-8,3.1-12.5,5.5v-11.3c4.5-1.8,8.7-3.2,12.6-4.1c3.9-0.9,7.5-1.4,10.7-1.4c8.6,0,15.4,2.1,20.5,6.4
			c5.1,4.3,7.6,10,7.6,17.2c0,3.4-0.6,6.6-1.9,9.7c-1.3,3-3.6,6.6-6.9,10.7c-0.9,1.1-3.9,4.2-8.8,9.3
			C1669.5,525.4,1662.5,532.6,1653.5,541.8z"/>
		<path id="path868" d="M1717.2,526.8h11.7v14.1h-11.7V526.8z M1717.2,482.2h11.7v14.1h-11.7V482.2z"/>
		<path id="path870" class="st1" d="M551.4,673.3v32.9h-10.2v-85.6h10.2v9.4c2.1-3.7,4.8-6.4,8.1-8.2c3.3-1.8,7.2-2.7,11.7-2.7
			c7.5,0,13.6,3,18.3,9c4.7,6,7.1,13.8,7.1,23.6c0,9.7-2.4,17.6-7.1,23.6c-4.7,6-10.8,9-18.3,9c-4.5,0-8.5-0.9-11.7-2.7
			C556.2,679.7,553.5,677,551.4,673.3z M586.1,651.6c0-7.5-1.6-13.4-4.7-17.6c-3.1-4.3-7.3-6.4-12.7-6.4c-5.4,0-9.6,2.1-12.7,6.4
			c-3.1,4.2-4.6,10.1-4.6,17.6s1.5,13.4,4.6,17.7c3.1,4.2,7.3,6.4,12.7,6.4c5.4,0,9.6-2.1,12.7-6.4
			C584.5,665,586.1,659.1,586.1,651.6z"/>
		<path id="path872" class="st1" d="M649.5,630.1c-1.1-0.7-2.4-1.1-3.8-1.4c-1.3-0.3-2.8-0.5-4.4-0.5c-5.8,0-10.2,1.9-13.3,5.6
			c-3.1,3.7-4.6,9.1-4.6,16.1v32.7h-10.2v-62h10.2v9.6c2.1-3.8,4.9-6.6,8.4-8.4c3.4-1.8,7.6-2.8,12.5-2.8c0.7,0,1.5,0.1,2.3,0.2
			c0.8,0.1,1.8,0.2,2.8,0.4L649.5,630.1z"/>
		<path id="path874" class="st1" d="M660.2,620.6h10.2v62h-10.2V620.6z M660.2,596.4h10.2v12.9h-10.2V596.4z"/>
		<path id="path876" class="st1" d="M743.2,645.2v37.4h-10.2v-37.1c0-5.9-1.1-10.3-3.4-13.2c-2.3-2.9-5.7-4.4-10.3-4.4
			c-5.5,0-9.8,1.8-13,5.3c-3.2,3.5-4.8,8.3-4.8,14.3v35h-10.2v-62h10.2v9.6c2.4-3.7,5.3-6.5,8.6-8.4c3.3-1.8,7.1-2.8,11.5-2.8
			c7.1,0,12.5,2.2,16.2,6.6C741.4,630.1,743.2,636.6,743.2,645.2z"/>
		<path id="path878" class="st1" d="M773.7,603v17.6h21v7.9h-21v33.7c0,5.1,0.7,8.3,2,9.7c1.4,1.4,4.2,2.2,8.5,2.2h10.5v8.5h-10.5
			c-7.9,0-13.3-1.5-16.3-4.4c-3-3-4.5-8.3-4.5-16.1v-33.7H756v-7.9h7.5V603H773.7z"/>
		<path id="path880" d="M832.7,596.6c-4.9,8.5-8.6,16.9-11,25.2c-2.4,8.3-3.6,16.7-3.6,25.2c0,8.5,1.2,17,3.6,25.4
			c2.4,8.3,6.1,16.7,11,25.2h-8.9c-5.5-8.7-9.7-17.2-12.5-25.6c-2.7-8.4-4.1-16.7-4.1-25c0-8.2,1.4-16.5,4.1-24.9
			s6.9-16.9,12.5-25.6H832.7z"/>
		<path id="path882" class="st4" d="M862.1,599.9v30.7h-9.4v-30.7H862.1z"/>
		<path id="path884" class="st4" d="M893.8,603v17.6h21v7.9h-21v33.7c0,5.1,0.7,8.3,2,9.7c1.4,1.4,4.2,2.2,8.5,2.2h10.5v8.5h-10.5
			c-7.9,0-13.3-1.5-16.3-4.4c-3-3-4.5-8.3-4.5-16.1v-33.7h-7.5v-7.9h7.5V603H893.8z"/>
		<path id="path886" class="st4" d="M979.8,645.2v37.4h-10.2v-37.1c0-5.9-1.1-10.3-3.4-13.2s-5.7-4.4-10.3-4.4
			c-5.5,0-9.8,1.8-13,5.3c-3.2,3.5-4.8,8.3-4.8,14.3v35h-10.2v-86.1h10.2v33.8c2.4-3.7,5.3-6.5,8.6-8.4c3.3-1.8,7.1-2.8,11.5-2.8
			c7.1,0,12.5,2.2,16.2,6.6C977.9,630.1,979.8,636.6,979.8,645.2z"/>
		<path id="path888" class="st4" d="M1000.2,620.6h10.2v62h-10.2V620.6z M1000.2,596.4h10.2v12.9h-10.2V596.4z"/>
		<path id="path890" class="st4" d="M1071.2,622.4v9.6c-2.9-1.5-5.9-2.6-9-3.3c-3.1-0.7-6.3-1.1-9.6-1.1c-5.1,0-8.9,0.8-11.4,2.3
			c-2.5,1.6-3.8,3.9-3.8,7c0,2.4,0.9,4.2,2.7,5.6c1.8,1.3,5.4,2.6,10.9,3.8l3.5,0.8c7.2,1.6,12.4,3.7,15.4,6.6
			c3.1,2.8,4.6,6.7,4.6,11.8c0,5.8-2.3,10.3-6.9,13.7c-4.5,3.4-10.8,5-18.8,5c-3.3,0-6.8-0.3-10.4-1c-3.6-0.6-7.4-1.6-11.3-2.9
			v-10.5c3.8,2,7.5,3.4,11.1,4.4c3.7,1,7.3,1.4,10.9,1.4c4.8,0,8.5-0.8,11.1-2.4c2.6-1.7,3.9-4,3.9-7c0-2.8-0.9-4.9-2.8-6.4
			c-1.8-1.5-5.9-2.9-12.2-4.3l-3.5-0.8c-6.3-1.3-10.9-3.4-13.7-6.1c-2.8-2.8-4.2-6.6-4.2-11.3c0-5.8,2.1-10.3,6.2-13.5
			c4.1-3.2,10-4.8,17.6-4.8c3.8,0,7.3,0.3,10.6,0.8C1065.3,620.5,1068.4,621.3,1071.2,622.4z"/>
		<path id="path892" class="st4" d="M1126.9,620.6h10.2v62h-10.2V620.6z M1126.9,596.4h10.2v12.9h-10.2V596.4z"/>
		<path id="path894" class="st4" d="M1197.8,622.4v9.6c-2.9-1.5-5.9-2.6-9-3.3c-3.1-0.7-6.3-1.1-9.6-1.1c-5.1,0-8.9,0.8-11.4,2.3
			c-2.5,1.6-3.8,3.9-3.8,7c0,2.4,0.9,4.2,2.7,5.6c1.8,1.3,5.4,2.6,10.9,3.8l3.5,0.8c7.2,1.6,12.4,3.7,15.4,6.6
			c3.1,2.8,4.6,6.7,4.6,11.8c0,5.8-2.3,10.3-6.9,13.7c-4.5,3.4-10.8,5-18.8,5c-3.3,0-6.8-0.3-10.4-1c-3.6-0.6-7.4-1.6-11.3-2.9
			v-10.5c3.8,2,7.5,3.4,11.1,4.4c3.7,1,7.3,1.4,10.9,1.4c4.8,0,8.5-0.8,11.1-2.4c2.6-1.7,3.9-4,3.9-7c0-2.8-0.9-4.9-2.8-6.4
			c-1.8-1.5-5.9-2.9-12.2-4.3l-3.5-0.8c-6.3-1.3-10.9-3.4-13.7-6.1c-2.8-2.8-4.2-6.6-4.2-11.3c0-5.8,2.1-10.3,6.2-13.5
			c4.1-3.2,10-4.8,17.6-4.8c3.8,0,7.3,0.3,10.6,0.8C1192,620.5,1195,621.3,1197.8,622.4z"/>
		<path id="path896" class="st4" d="M1263.6,603v17.6h21v7.9h-21v33.7c0,5.1,0.7,8.3,2,9.7c1.4,1.4,4.2,2.2,8.5,2.2h10.5v8.5h-10.5
			c-7.9,0-13.3-1.5-16.3-4.4c-3-3-4.5-8.3-4.5-16.1v-33.7h-7.5v-7.9h7.5V603H1263.6z"/>
		<path id="path898" class="st4" d="M1349.6,645.2v37.4h-10.2v-37.1c0-5.9-1.1-10.3-3.4-13.2s-5.7-4.4-10.3-4.4
			c-5.5,0-9.8,1.8-13,5.3c-3.2,3.5-4.8,8.3-4.8,14.3v35h-10.2v-86.1h10.2v33.8c2.4-3.7,5.3-6.5,8.6-8.4c3.3-1.8,7.1-2.8,11.5-2.8
			c7.1,0,12.5,2.2,16.2,6.6C1347.8,630.1,1349.6,636.6,1349.6,645.2z"/>
		<path id="path900" class="st4" d="M1423.1,649v5h-46.8c0.4,7,2.5,12.4,6.3,16.1c3.8,3.7,9.1,5.5,15.8,5.5c3.9,0,7.7-0.5,11.3-1.4
			c3.7-1,7.3-2.4,11-4.3v9.6c-3.7,1.6-7.4,2.7-11.2,3.5c-3.8,0.8-7.7,1.2-11.7,1.2c-9.9,0-17.7-2.9-23.5-8.6
			c-5.8-5.8-8.6-13.5-8.6-23.4c0-10.2,2.7-18.2,8.2-24.1c5.5-6,12.9-9,22.2-9c8.3,0,14.9,2.7,19.8,8.1
			C1420.6,632.5,1423.1,639.8,1423.1,649z M1412.9,646.1c-0.1-5.6-1.6-10-4.7-13.3c-3-3.3-7-5-12.1-5c-5.7,0-10.2,1.6-13.7,4.8
			c-3.4,3.2-5.4,7.7-5.9,13.6L1412.9,646.1z"/>
		<path id="path902" class="st4" d="M1527.4,645.2v37.4h-10.2v-37.1c0-5.9-1.1-10.3-3.4-13.2c-2.3-2.9-5.7-4.4-10.3-4.4
			c-5.5,0-9.8,1.8-13,5.3c-3.2,3.5-4.8,8.3-4.8,14.3v35h-10.2v-86.1h10.2v33.8c2.4-3.7,5.3-6.5,8.6-8.4c3.3-1.8,7.1-2.8,11.5-2.8
			c7.1,0,12.5,2.2,16.2,6.6C1525.6,630.1,1527.4,636.6,1527.4,645.2z"/>
		<path id="path904" class="st4" d="M1571.9,627.7c-5.5,0-9.8,2.1-13,6.4c-3.2,4.2-4.8,10.1-4.8,17.5s1.6,13.3,4.7,17.6
			c3.2,4.2,7.5,6.4,13,6.4c5.4,0,9.7-2.1,12.9-6.4c3.2-4.3,4.8-10.1,4.8-17.5c0-7.3-1.6-13.2-4.8-17.4
			C1581.6,629.9,1577.3,627.7,1571.9,627.7z M1571.9,619.1c8.9,0,15.8,2.9,20.9,8.6c5.1,5.8,7.6,13.7,7.6,23.9
			c0,10.2-2.5,18.1-7.6,23.9c-5.1,5.8-12,8.6-20.9,8.6c-8.9,0-15.9-2.9-20.9-8.6c-5-5.8-7.5-13.8-7.5-23.9c0-10.2,2.5-18.2,7.5-23.9
			C1556,622,1563,619.1,1571.9,619.1z"/>
		<path id="path906" class="st4" d="M1616.1,658.1v-37.5h10.2v37.1c0,5.9,1.1,10.3,3.4,13.2c2.3,2.9,5.7,4.4,10.3,4.4
			c5.5,0,9.8-1.8,13-5.3c3.2-3.5,4.8-8.3,4.8-14.3v-35.2h10.2v62h-10.2v-9.5c-2.5,3.8-5.4,6.6-8.6,8.4c-3.2,1.8-7,2.7-11.3,2.7
			c-7.1,0-12.5-2.2-16.2-6.6C1618,673.1,1616.1,666.6,1616.1,658.1z"/>
		<path id="path908" class="st4" d="M1728.7,622.4v9.6c-2.9-1.5-5.9-2.6-9-3.3c-3.1-0.7-6.3-1.1-9.6-1.1c-5.1,0-8.9,0.8-11.4,2.3
			c-2.5,1.6-3.8,3.9-3.8,7c0,2.4,0.9,4.2,2.7,5.6c1.8,1.3,5.4,2.6,10.9,3.8l3.5,0.8c7.2,1.6,12.4,3.7,15.4,6.6
			c3.1,2.8,4.6,6.7,4.6,11.8c0,5.8-2.3,10.3-6.9,13.7c-4.5,3.4-10.8,5-18.8,5c-3.3,0-6.8-0.3-10.4-1c-3.6-0.6-7.4-1.6-11.3-2.9
			v-10.5c3.8,2,7.5,3.4,11.1,4.4c3.7,1,7.3,1.4,10.9,1.4c4.8,0,8.5-0.8,11.1-2.4c2.6-1.7,3.9-4,3.9-7c0-2.8-0.9-4.9-2.8-6.4
			c-1.8-1.5-5.9-2.9-12.2-4.3l-3.5-0.8c-6.3-1.3-10.9-3.4-13.7-6.1c-2.8-2.8-4.2-6.6-4.2-11.3c0-5.8,2.1-10.3,6.2-13.5
			c4.1-3.2,10-4.8,17.6-4.8c3.8,0,7.3,0.3,10.6,0.8C1722.8,620.5,1725.9,621.3,1728.7,622.4z"/>
		<path id="path910" class="st4" d="M1801.3,649v5h-46.8c0.4,7,2.5,12.4,6.3,16.1c3.8,3.7,9.1,5.5,15.8,5.5c3.9,0,7.7-0.5,11.3-1.4
			c3.7-1,7.3-2.4,11-4.3v9.6c-3.7,1.6-7.4,2.7-11.2,3.5c-3.8,0.8-7.7,1.2-11.7,1.2c-9.9,0-17.7-2.9-23.5-8.6
			c-5.8-5.8-8.6-13.5-8.6-23.4c0-10.2,2.7-18.2,8.2-24.1c5.5-6,12.9-9,22.2-9c8.3,0,14.9,2.7,19.8,8.1
			C1798.9,632.5,1801.3,639.8,1801.3,649z M1791.1,646.1c-0.1-5.6-1.6-10-4.7-13.3c-3-3.3-7-5-12.1-5c-5.7,0-10.2,1.6-13.7,4.8
			c-3.4,3.2-5.4,7.7-5.9,13.6L1791.1,646.1z"/>
		<path id="path912" class="st4" d="M1827.7,599.9v30.7h-9.4v-30.7H1827.7z"/>
		<path id="path914" d="M1847.6,596.6h8.9c5.5,8.7,9.7,17.2,12.4,25.6c2.8,8.3,4.2,16.6,4.2,24.9c0,8.3-1.4,16.6-4.2,25
			c-2.7,8.4-6.9,16.9-12.4,25.6h-8.9c4.9-8.5,8.6-16.8,11-25.2c2.4-8.4,3.7-16.8,3.7-25.4c0-8.5-1.2-16.9-3.7-25.2
			C1856.2,613.4,1852.6,605,1847.6,596.6z"/>
		<path id="path862_1_" class="st2" d="M1475.3,489.4h71v9.3h-71V489.4z M1475.3,512h71v9.4h-71V512z"/>
	</g>
	<text transform="matrix(1 0 0 1 234.5271 106.1139)" class="st5 st6">condition</text>
	<path id="path845" inkscape:connector-curvature="0" sodipodi:nodetypes="cccc" class="st7" d="M139.1,147.4v-14.2h303v14.3"/>
	<path id="path847" inkscape:connector-curvature="0" class="st8" d="M289,131.9v-17.5"/>
	<text transform="matrix(1 0 0 1 -8.9339 228.8014)" class="st5 st6">body</text>
	<path id="path845-7" inkscape:connector-curvature="0" sodipodi:nodetypes="cccc" class="st7" d="M88.7,239H74.5v-34.5h14.3"/>
	<path id="path847-5" inkscape:connector-curvature="0" class="st8" d="M73.3,222.6H55.8"/>
</g>
</svg>
